<svg width="97" height="97" viewBox="0 0 97 97" fill="none" xmlns="http://www.w3.org/2000/svg">
<path d="M51.215 25.8425C50.2862 22.5484 49.3549 19.2542 48.4158 15.9627C48.0133 14.5516 47.6702 14.3117 46.148 14.3117C40.97 14.3117 35.792 14.2937 30.614 14.3323C29.8632 14.3375 29.7084 14.1208 29.742 13.4269C29.8013 12.2068 29.7729 10.984 29.7523 9.7613C29.7368 8.7243 29.1744 8.14905 28.1424 8.14131C26.1481 8.12326 24.1538 8.12584 22.1595 8.13874C21.063 8.14648 20.5083 8.70624 20.4928 9.79999C20.4773 10.8293 20.4902 11.8585 20.4902 12.8878C20.4902 14.2859 20.4902 14.3117 19.1151 14.304C18.256 14.2988 17.6677 14.6574 17.4355 15.4545C16.3932 19.0143 15.3664 22.5793 14.3731 26.1547C14.0506 27.3181 14.7601 28.1822 15.9753 28.208C16.6822 28.2235 17.3969 28.2725 18.096 28.1951C18.8674 28.1074 18.9655 28.4273 18.9629 29.1031C18.9345 33.829 18.9448 38.5574 18.9474 43.2832C18.9474 44.6891 19.4505 45.1947 20.8514 45.1947C24.84 45.1972 28.8287 45.1947 32.8147 45.1947C36.8033 45.1947 40.792 45.1972 44.778 45.1947C46.2486 45.1947 46.7414 44.7071 46.7414 43.2419C46.7439 39.0939 46.7388 34.9459 46.7439 30.7979C46.7439 29.9673 46.4602 28.8477 46.8807 28.3834C47.3735 27.8443 48.5112 28.2648 49.3652 28.208C49.3961 28.2054 49.4297 28.208 49.4607 28.208C51.0731 28.1977 51.6588 27.4135 51.215 25.8425ZM25.2167 11.2214C26.6718 11.2214 26.6718 11.2214 26.6718 12.6608C26.6718 14.3091 26.6718 14.3091 25.0387 14.3091C23.5836 14.3091 23.5836 14.3091 23.5836 12.8697C23.5836 11.2214 23.5836 11.2214 25.2167 11.2214ZM43.6764 41.3304C43.6815 41.9599 43.519 42.1224 42.8869 42.1198C36.1971 42.0966 29.5046 42.0966 22.8148 42.1198C22.1878 42.1224 22.0201 41.965 22.0253 41.333C22.0563 37.216 22.0537 33.0989 22.0253 28.9819C22.0201 28.3525 22.1827 28.1874 22.8148 28.1925C26.161 28.2261 29.5046 28.208 32.8508 28.208C36.1971 28.208 39.5433 28.2261 42.8869 28.1925C43.5138 28.1874 43.6815 28.3473 43.6764 28.9793C43.6454 33.0989 43.6454 37.216 43.6764 41.3304ZM17.9464 25.079C18.6456 22.6335 19.337 20.2422 20.0052 17.8432C20.1161 17.4485 20.3329 17.3918 20.6915 17.3918C28.7951 17.4021 36.8988 17.3995 45.005 17.3918C45.3611 17.3918 45.583 17.4382 45.6939 17.838C46.3621 20.237 47.0535 22.6283 47.7553 25.079C37.794 25.079 27.9076 25.079 17.9464 25.079Z" fill="#F99800"/>
<path d="M63.617 48.2825C55.1728 48.2902 48.2868 55.219 48.2946 63.6956C48.3023 72.296 55.1753 79.1706 63.7615 79.1628C72.3398 79.1551 79.1819 72.2702 79.1819 63.6517C79.1793 55.1081 72.2599 48.2747 63.617 48.2825ZM63.6195 76.0673C56.8497 75.9925 51.3441 70.3948 51.3854 63.6311C51.4266 56.8545 57.1077 51.2903 63.9008 51.3754C70.5932 51.458 76.1453 57.1047 76.0885 63.7704C76.0318 70.5986 70.4074 76.1421 63.6195 76.0673Z" fill="#F99800"/>
<path d="M58.1602 71.8703V70.5264C59.961 69.6132 61.2252 67.8384 61.2252 65.8237C61.2252 65.1788 61.1994 64.6397 61.091 63.9406H58.3227V62.2458H60.8227C60.6885 61.441 60.526 60.3911 60.526 59.3438C60.526 56.1735 62.7035 54.1021 65.6859 54.1021C67.0843 54.1021 68.0517 54.4245 68.6168 54.7753L68.0775 56.5501C67.5925 56.2792 66.8134 56.011 65.6859 56.011C63.5884 56.011 62.7293 57.4607 62.7293 59.3722C62.7293 60.5278 62.8918 61.3868 63.0518 62.2458H66.9217V63.9406H63.2659C63.3459 64.9622 63.4001 65.9837 63.1576 66.951C62.8609 68.1067 62.2184 69.074 61.3026 69.8531V69.9072H69.3133V71.8703H58.1602Z" fill="#F99800"/>
<path d="M94.4552 86.0659C90.7169 82.2532 86.9192 78.4999 83.1292 74.7389C82.7499 74.3623 82.6854 74.1146 82.9434 73.6142C85.2448 69.1515 85.882 64.4437 84.9687 59.5089C83.3072 50.5165 75.3403 43.1233 66.3465 42.3082C65.5054 42.2308 65.2578 41.9728 65.2604 41.1035C65.2913 28.2055 65.2836 15.3075 65.281 2.41211C65.281 0.88499 64.8063 0.415501 63.266 0.415501C46.602 0.415501 29.9406 0.420661 13.2766 0.400024C12.433 0.400024 11.8267 0.665722 11.2436 1.25387C7.94128 4.59187 4.62086 7.9144 1.28239 11.2163C0.668358 11.8251 0.397463 12.4545 0.400043 13.3341C0.425842 26.779 0.418104 40.2213 0.418104 53.6661C0.418104 67.1755 0.418104 80.6823 0.418104 94.1916C0.418104 95.6646 0.905716 96.1521 2.37114 96.1521C22.7013 96.1521 43.0314 96.1521 63.3615 96.1521C64.7702 96.1521 65.2784 95.6465 65.281 94.251C65.2861 91.5811 65.3171 88.9112 65.2604 86.2439C65.2423 85.4416 65.5158 85.2198 66.2588 85.1579C68.7768 84.9464 71.1607 84.2112 73.395 83.0452C74.0219 82.7176 74.3857 82.7176 74.9197 83.2619C78.573 86.9765 82.2675 90.6524 85.962 94.3284C87.7112 96.067 89.8036 96.6216 92.1487 95.8477C96.3154 94.4728 97.5615 89.2362 94.4552 86.0659ZM11.2075 5.92552C11.2075 7.54293 11.1998 9.16808 11.2153 10.7932C11.2178 11.1389 11.0863 11.2266 10.7638 11.224C9.14354 11.2111 7.52075 11.2189 5.91601 11.2189C7.68586 9.44667 9.41702 7.71318 11.2075 5.92552ZM62.216 86.2413C62.1437 88.2663 62.1721 90.2939 62.2057 92.3214C62.216 92.8863 62.118 93.1391 61.4833 93.0798C60.8125 93.0153 60.134 93.0669 59.458 93.0669C41.1506 93.0669 22.8432 93.0618 4.53831 93.085C3.73078 93.085 3.4831 92.9483 3.4831 92.066C3.51148 66.4919 3.51148 40.9178 3.48826 15.3436C3.48826 14.5336 3.625 14.2628 4.50735 14.2886C7.14407 14.3608 9.78338 14.317 12.4201 14.3118C13.0935 14.3118 13.5553 14.188 13.8571 13.9042C13.8597 13.9016 13.8623 13.9016 13.8649 13.9016C14.2235 13.6437 14.3009 13.0452 14.3138 12.7434H14.3164V12.6634C14.319 12.5989 14.3164 12.5603 14.3164 12.5603V11.7477C14.3215 9.25837 14.3344 6.76905 14.3009 4.28232C14.2932 3.65548 14.4557 3.49038 15.0878 3.49038C30.5315 3.50844 45.9751 3.50844 61.4188 3.49038C62.0483 3.49038 62.2082 3.64774 62.2082 4.27716C62.1876 16.6309 62.1876 28.982 62.2108 41.3357C62.2108 42.0038 62.007 42.2024 61.3775 42.2746C55.152 42.9918 50.1547 45.8783 46.3853 50.875C46.0293 51.3471 45.6397 51.378 45.1444 51.378C36.7156 51.3703 28.2843 51.3858 19.8556 51.3522C19.079 51.3497 18.9139 51.5715 18.9293 52.3015C18.9732 54.4607 18.9422 54.4607 21.1352 54.4607C28.4391 54.4607 35.743 54.4607 43.0443 54.4607C43.3874 54.4607 43.7305 54.4607 44.1382 54.4607C43.7667 55.4435 43.4003 56.3283 43.1062 57.2337C42.9488 57.7187 42.5954 57.5381 42.3219 57.5407C40.1341 57.5562 37.9463 57.5484 35.7585 57.5484C28.3901 57.5484 21.0217 57.5588 13.6559 57.533C12.9696 57.5304 12.7297 57.6439 12.7452 58.4023C12.7942 60.6362 12.7555 60.6362 14.9768 60.6362C23.7926 60.6362 32.6083 60.6465 41.4241 60.6182C42.2032 60.6156 42.4767 60.8039 42.2368 61.5649C42.1877 61.7171 42.1671 61.8796 42.1542 62.0395C42.1103 62.5761 42.26 63.4196 41.9942 63.5821C41.5427 63.8556 40.8307 63.7214 40.227 63.7214C31.3803 63.7266 22.531 63.7343 13.6843 63.7059C12.9155 63.7034 12.7374 63.9097 12.7529 64.6501C12.7994 66.8118 12.7658 66.8118 14.9536 66.8118C23.7358 66.8118 32.5206 66.8273 41.3028 66.7886C42.1826 66.7834 42.4689 67.0543 42.5309 67.8797C42.5799 68.5375 42.7966 69.1824 42.954 69.9021C42.5257 69.9021 42.1722 69.9021 41.8214 69.9021C32.4587 69.9021 23.096 69.915 13.7333 69.8815C12.9258 69.8789 12.7245 70.0724 12.7478 70.8721C12.8071 72.9899 12.7658 72.9899 14.8994 72.9899C24.2931 72.9899 33.6893 73.0002 43.083 72.9693C43.8828 72.9667 44.373 73.1086 44.6929 73.9108C44.9818 74.6383 45.4694 75.2858 45.9313 76.0777C45.4952 76.0777 45.1573 76.0777 44.8167 76.0777C34.4556 76.0777 24.097 76.088 13.7359 76.0571C12.9387 76.0545 12.7194 76.2299 12.7426 77.0425C12.8045 79.1655 12.7607 79.1655 14.8891 79.1655C25.8282 79.1655 36.7672 79.1706 47.7063 79.1526C48.3255 79.1526 48.7666 79.328 49.231 79.7433C52.6495 82.8027 56.6252 84.6678 61.2072 85.1527C61.9451 85.2327 62.2469 85.4236 62.216 86.2413ZM63.5137 82.2429C53.3125 82.1191 45.0747 73.6503 45.2114 63.4248C45.3456 53.2998 53.8543 45.0529 64.0142 45.1999C74.0838 45.3444 82.3784 53.7848 82.2675 63.7782C82.154 74.1017 73.7588 82.3667 63.5137 82.2429ZM91.6069 92.68C90.6162 93.2243 89.6358 93.1598 88.7019 92.5433C88.4104 92.3498 88.155 92.097 87.9073 91.8494C84.4527 88.403 81.011 84.9412 77.541 81.5103C77.056 81.0305 76.9011 80.7674 77.5513 80.2953C78.6452 79.5008 79.5688 78.5103 80.4047 77.4475C80.7092 77.0605 80.9078 76.9032 81.3438 77.3443C84.9352 80.9712 88.5523 84.5749 92.1642 88.1837C92.737 88.7538 93.0156 89.4503 93.0801 90.2474C92.9795 91.2947 92.5641 92.1537 91.6069 92.68Z" fill="#F99800"/>
</svg>
