<svg width="118" height="118" viewBox="0 0 118 118" fill="none" xmlns="http://www.w3.org/2000/svg">
<path d="M55.6854 71.9733V69.7269C58.8428 68.1999 61.0591 65.2341 61.0591 61.8661C61.0591 60.7871 61.0119 59.8879 60.8229 58.7205H55.9688V55.8888H60.3507C60.1146 54.5416 59.8312 52.789 59.8312 51.0363C59.8312 45.7358 63.6464 42.2763 68.8784 42.2763C71.3308 42.2763 73.0275 42.8158 74.0159 43.4011L73.0714 46.3669C72.2213 45.9157 70.8551 45.4677 68.8784 45.4677C65.2049 45.4677 63.697 47.8907 63.697 51.0853C63.697 53.0146 63.9804 54.4533 64.2603 55.8921H71.0474V58.7238H64.6415C64.7832 60.4307 64.8776 62.1375 64.4526 63.7561C63.9331 65.6886 62.8031 67.3072 61.2008 68.6086V68.7002H75.2404V71.9733H55.6854Z" fill="#F99800"/>
<path d="M117.282 85.4681C115.497 81.7535 111.527 80.3311 107.277 81.9039C106.319 82.2604 105.381 82.6756 104.328 83.1073C104.396 82.8162 104.403 82.6985 104.45 82.5972C107.536 75.7697 107.992 68.6969 106.558 61.4443C105.064 53.8974 101.613 47.2138 96.9713 41.0599C95.4499 39.0456 93.8071 37.1262 92.0631 35.2918C91.4323 34.628 90.6598 34.4253 89.8131 34.8569C89.0643 35.2395 88.8113 35.8935 88.9125 36.7011C88.9901 37.3322 89.4623 37.6984 89.8502 38.1235C97.0927 46.0563 102.433 54.8947 103.536 65.6755C104.244 72.5815 102.932 79.0886 99.0256 85.0136C98.7018 85.5041 98.2565 85.7362 97.7438 85.9553C93.7025 87.6753 89.6681 89.4083 85.6302 91.1316C82.6483 92.4035 79.6595 93.669 76.5426 94.9933C76.5426 94.4799 76.5426 94.1071 76.5426 93.7344C76.5628 88.2933 73.0748 83.8299 67.5325 82.9307C61.808 82.0021 56.0127 81.4462 50.2343 80.9034C46.1964 80.5241 42.415 79.5954 38.9438 77.4962C36.0664 75.7566 33.0608 74.2394 29.7955 73.2551C27.2048 72.4736 27.2082 72.454 27.1508 69.7825C27.0159 63.537 28.5237 57.6349 31.2629 52.0238C35.7628 42.8158 42.6882 35.5371 50.7099 29.1248C51.7657 28.2812 52.6597 27.8594 53.8943 28.654C54.208 28.8567 54.633 28.909 55.0142 29.0038C59.6761 30.1385 64.4257 30.1875 69.1652 29.854C72.0257 29.6545 74.9268 29.3341 77.4365 27.7515C77.9256 27.4441 78.1719 27.758 78.4586 27.9836C80.0812 29.2687 81.6902 30.5734 83.3162 31.8617C84.3349 32.6694 85.3266 32.6759 86.0485 31.9042C86.8109 31.09 86.7063 30.0862 85.6505 29.2098C83.9065 27.7645 82.1254 26.3585 80.3342 24.9721C79.8619 24.6058 79.6325 24.3017 79.7202 23.6478C79.953 21.8918 79.4672 20.2536 78.1753 19.0013C77.5141 18.3604 77.7064 17.9909 78.1011 17.4088C79.5482 15.2638 80.8739 13.0436 81.9264 10.6892C82.7461 8.85811 83.4477 6.98446 83.4376 4.9506C83.4207 1.47799 81.1876 0.0392371 77.9155 1.38316C77.0823 1.72323 76.2592 1.90307 75.4058 1.50087C74.3634 1.01039 73.3312 0.500292 72.2956 0C71.3443 0 70.3931 0 69.4452 0C68.5411 0.238701 67.6776 0.542802 66.8612 1.01366C65.9639 1.53031 64.9958 1.57281 64.0681 1.01693C63.1607 0.474133 62.1757 0.150414 61.1266 0C60.2563 0 59.3826 0 58.5123 0C57.8174 0.326988 57.0686 0.578768 56.4411 1.00058C55.1626 1.85075 53.9516 1.85729 52.5618 1.20332C50.1229 0.0555906 48.1057 1.151 47.5795 3.75055C47.2725 5.26778 47.5525 6.71961 47.9877 8.16162C48.9659 11.3857 50.6829 14.2632 52.4708 17.108C52.6226 17.3467 53.0678 17.6148 52.5517 17.9582C52.2313 18.1707 51.9951 18.3015 51.6443 17.9582C48.632 15.0087 44.9348 14.1586 40.7722 14.5412C38.0196 14.7929 35.4525 14.0932 33.0912 12.6773C31.8869 11.9514 30.9087 12.0953 30.288 13.0141C29.6504 13.9558 29.981 14.9205 31.246 15.6725C34.4439 17.5756 37.9049 18.4356 41.656 18.0203C45.0765 17.641 47.8055 18.7855 50.1196 21.5714C47.6942 21.6074 45.5116 21.8395 43.3764 22.3594C39.1125 23.4025 35.4086 25.2925 32.9326 28.9777C32.1871 30.0862 32.3288 31.1031 33.2497 31.6982C34.1976 32.3097 35.2231 32.0743 35.9382 30.9069C38.4244 26.8359 45.2553 24.8772 49.9779 25.2304C49.7586 25.4135 49.5933 25.5607 49.4179 25.6914C45.7849 28.4283 42.388 31.4203 39.2474 34.6836C33.4184 40.7427 28.7767 47.5212 25.9533 55.395C24.1418 60.447 23.3187 65.6363 23.6088 70.9793C23.646 71.6496 23.6088 71.9308 22.752 71.7608C21.6759 71.5482 20.5493 71.4894 19.4462 71.4959C18.6805 71.4992 18.5691 71.2343 18.5557 70.5673C18.4916 67.5001 16.2753 65.4368 13.0977 65.4303C10.6014 65.4238 8.10855 65.427 5.61232 65.4303C2.16818 65.4336 0.0160231 67.4413 0.0126499 70.7537C-0.00421662 83.9607 -0.00421662 97.1677 0.0126499 110.375C0.0160231 113.668 2.10072 115.679 5.47739 115.711C8.01073 115.734 10.5474 115.734 13.0808 115.711C16.2854 115.682 18.3094 113.825 18.5793 110.718C18.5928 110.578 18.5556 110.407 18.8323 110.339C23.5751 112.049 28.4192 113.668 33.1553 115.538C37.6249 117.304 42.1721 118.098 47.006 117.99C54.6061 117.824 62.2162 117.899 69.8196 117.964C74.4714 118.003 78.6678 116.764 82.574 114.348C93.1965 107.782 103.849 101.265 114.489 94.7284C117.71 92.7371 118.898 88.8296 117.282 85.4681ZM76.0973 23.4418C75.9691 24.5045 75.3417 25.1421 74.2521 25.407C71.1352 26.1688 67.9778 26.5841 64.5708 26.5285C61.6596 26.6201 58.6169 26.1721 55.6079 25.5083C53.8201 25.1127 53.1117 23.9846 53.4996 22.2875C53.7796 21.0613 54.7342 20.3942 56.0262 20.6624C59.359 21.3523 62.7087 21.7872 66.1292 21.6531C68.4669 21.5616 70.7506 21.1986 73.031 20.7278C75.0819 20.3092 76.3368 21.4373 76.0973 23.4418ZM51.2834 6.55284C51.0978 5.88251 51.027 5.21873 51.1822 4.39799C53.8133 5.81058 56.2387 5.34298 58.5764 3.8323C59.6592 3.13255 60.6746 3.49223 61.6664 4.09389C63.3361 5.11082 65.1172 5.56534 67.0839 5.05524C67.8968 4.84596 68.6187 4.46012 69.3102 4.02195C70.4167 3.31566 71.5231 3.28623 72.6296 3.99906C74.6772 5.31682 76.8192 5.67978 79.1232 4.66612C79.9462 4.30316 79.8585 4.88847 79.8012 5.35279C79.5954 7.08583 78.8971 8.66845 78.1415 10.2216C77.0823 12.4027 75.7836 14.4561 74.414 16.4671C74.2521 16.7058 74.1543 17.0066 73.7596 17.0622C70.8383 17.4873 67.9744 18.2819 64.9789 18.2002C62.4051 18.1315 59.8684 17.8176 57.3485 17.2977C57.0146 17.229 56.7717 17.1374 56.5828 16.8497C54.4644 13.5929 52.3358 10.3328 51.2834 6.55284ZM112.677 91.6809C101.707 98.4332 90.734 105.182 79.7405 111.905C76.8293 113.684 73.5943 114.475 70.1671 114.482C61.4134 114.498 52.6597 114.479 43.9093 114.492C40.6777 114.498 37.7227 113.435 34.761 112.363C29.7111 110.528 24.6647 108.688 19.5946 106.899C18.7985 106.618 18.5287 106.274 18.5354 105.444C18.5793 99.8 18.5556 94.1562 18.559 88.5124C18.559 88.0121 18.5826 87.5085 18.3027 87.0605C17.8945 86.4131 17.294 86.0665 16.5148 86.181C15.7018 86.2987 15.1351 86.7532 15.0036 87.5772C14.9361 87.9925 14.9429 88.4175 14.9429 88.8394C14.9395 95.8271 14.9429 102.815 14.9395 109.803C14.9395 111.836 14.5583 112.203 12.45 112.203C10.1933 112.203 7.93652 112.206 5.67641 112.203C4.07072 112.199 3.59172 111.729 3.59172 110.136C3.58834 103.609 3.59172 97.0827 3.59172 90.5561C3.59172 84.0686 3.59172 77.5812 3.59172 71.0905C3.59172 69.3934 4.08759 68.9094 5.8417 68.9062C8.1794 68.8996 10.5137 68.8931 12.8514 68.9094C14.3795 68.9193 14.9226 69.4359 14.9327 70.9302C14.953 73.6933 14.9327 76.4596 14.9395 79.2227C14.9429 80.8347 15.4994 81.5475 16.7206 81.5508C17.935 81.5541 18.5489 80.7889 18.5557 79.2488C18.559 78.2123 18.613 77.1724 18.5388 76.1391C18.4781 75.2759 18.694 74.998 19.6722 75.0143C25.3124 75.1124 30.4364 76.816 35.267 79.5137C38.4817 81.3088 41.6998 83.1694 45.4138 83.7809C48.723 84.3269 52.0761 84.5951 55.4123 84.9874C59.2949 85.4419 63.2012 85.7657 67.0569 86.3902C70.5449 86.9559 72.9298 90.0558 72.8893 93.4989C72.859 95.9514 72.859 95.9514 70.3357 95.9514C65.3837 95.9514 60.4351 95.9514 55.4831 95.9546C55.0884 95.9546 54.6904 95.9546 54.2991 96.0037C53.3411 96.1246 52.8047 96.674 52.7474 97.6026C52.6866 98.5967 53.25 99.1885 54.1979 99.4272C54.5723 99.5188 54.9839 99.4828 55.3785 99.4828C61.5179 99.4861 67.6573 99.4763 73.7967 99.4959C74.6097 99.4992 75.3484 99.3455 76.0872 99.0283C86.4668 94.5878 96.8465 90.1538 107.229 85.7232C108.022 85.3831 108.822 85.0659 109.678 84.8861C111.611 84.4806 113.251 85.2687 114.033 87.005C114.799 88.7118 114.256 90.7097 112.677 91.6809Z" fill="#F99800"/>
</svg>
