<svg width="118" height="118" viewBox="0 0 118 118" fill="none" xmlns="http://www.w3.org/2000/svg">
<path d="M78.6843 82.9541V80.7703C81.659 79.2858 83.7471 76.4026 83.7471 73.1285C83.7471 72.0795 83.7026 71.2053 83.5246 70.0705H78.9513V67.3177H83.0797C82.8572 66.008 82.5902 64.3042 82.5902 62.6004C82.5902 57.4476 86.1847 54.0845 91.1139 54.0845C93.4244 54.0845 95.023 54.609 95.9542 55.178L95.0643 58.0611C94.2634 57.6224 92.9763 57.187 91.1139 57.187C87.653 57.187 86.2324 59.5424 86.2324 62.6481C86.2324 64.5236 86.4993 65.9222 86.7631 67.3209H93.1575V70.0737H87.1222C87.2557 71.733 87.3447 73.3923 86.9442 74.9658C86.4548 76.8445 85.3901 78.418 83.8805 79.6831V79.7721H97.1079V82.9604H78.6843V82.9541Z" fill="#F99800"/>
<path d="M115.083 86.4348C114.282 86.0215 114.155 85.5606 114.159 84.7945C114.178 78.6913 114.263 72.588 114.149 66.488C113.958 56.3827 109.391 48.7409 100.788 43.5055C97.6545 41.5982 94.1999 40.5619 90.5801 39.9738C92.4011 39.9738 94.2222 39.9738 96.0432 39.9738C99.0593 39.9738 99.0593 39.9738 98.9512 36.9318C98.9512 36.8936 98.9449 36.8523 98.9512 36.8141C99.037 36.2769 98.7891 36.1466 98.2838 36.1561C96.9426 36.1879 95.6015 36.1657 94.2921 36.1657C94.1268 35.8446 94.3207 35.6475 94.4002 35.4377C95.8049 31.6709 97.2128 27.9072 98.6334 24.1467C98.983 23.2185 99.2118 22.3094 98.4078 21.5052C97.5624 20.6628 96.6376 20.9171 95.6682 21.3176C93.3005 22.2967 90.9042 23.2026 88.5461 24.2008C87.8278 24.5059 87.2303 24.4773 86.5311 24.1849C84.1317 23.1836 81.7068 22.2458 79.2978 21.2636C78.3666 20.8853 77.4703 20.6914 76.6631 21.4988C75.9003 22.2617 76.0402 23.1359 76.3898 24.0291C76.6631 24.7253 76.9269 25.4246 77.1907 26.1271C78.4301 29.4362 79.6696 32.7485 80.9472 36.1689C80.1876 36.1689 79.5615 36.1689 78.9354 36.1689C76.072 36.1689 76.1133 36.1688 76.091 39.0615C76.0847 39.9134 76.4057 39.9993 77.108 39.9897C79.4821 39.9548 81.8593 39.977 84.2334 39.977C84.2365 40.0247 84.2397 40.0756 84.2429 40.1232C83.6708 40.2313 83.0988 40.3426 82.5235 40.4443C70.3736 42.5868 60.9568 53.7157 60.9028 66.0398C60.8742 72.3401 60.8837 78.6404 60.9123 84.9408C60.9155 85.6592 60.7312 86.0342 60.0638 86.3871C57.7247 87.6268 56.5901 90.2716 57.2384 92.7065C57.9376 95.3353 60.086 97.055 62.7556 97.055C79.2755 97.0646 95.7985 97.0646 112.318 97.055C114.978 97.055 117.127 95.3194 117.823 92.6842C118.459 90.3065 117.346 87.5982 115.083 86.4348ZM81.3699 26.2701C83.1496 26.9758 84.6719 27.5162 86.1402 28.1806C87.1255 28.6256 88.0026 28.6002 88.9751 28.1711C90.4402 27.5289 91.9467 26.9822 93.6819 26.2956C92.8048 28.6447 92.0229 30.7681 91.222 32.8852C90.8216 33.9501 90.6659 35.3392 89.8968 35.9686C89.1054 36.6202 87.6816 36.0417 86.5502 36.1816C85.4283 36.3182 84.9071 35.8986 84.5416 34.821C83.5946 32.0333 82.5045 29.2932 81.3699 26.2701ZM111.378 93.2501C103.416 93.2501 95.4521 93.2501 87.4909 93.2501C79.6092 93.2501 71.7243 93.2501 63.8426 93.2501C63.5248 93.2501 63.2069 93.266 62.8923 93.2437C61.7259 93.1579 60.8774 92.3092 60.9155 91.2888C60.9537 90.2938 61.7641 89.4928 62.8923 89.461C64.4369 89.4165 65.9814 89.4165 67.526 89.461C68.2411 89.4832 68.6352 89.372 68.5239 88.5264C68.4032 87.5982 68.918 86.3521 68.3142 85.8054C67.8089 85.3445 66.5885 85.6147 65.6891 85.656C64.9644 85.6878 64.6784 85.5479 64.6848 84.7151C64.7293 78.5355 64.6339 72.3528 64.7324 66.1733C64.9136 55.0889 73.2466 45.6448 84.1444 44.0331C96.5613 42.1958 108.152 50.7435 110.087 63.1884C110.275 64.3964 110.345 65.6329 110.351 66.8567C110.377 72.7597 110.342 78.6627 110.386 84.5688C110.392 85.4557 110.183 85.6846 109.29 85.6655C106.544 85.6115 106.588 85.656 106.531 88.3802C106.512 89.2798 106.747 89.5277 107.634 89.4705C108.896 89.3879 110.167 89.4482 111.435 89.4482C113.215 89.4514 114.178 90.1349 114.152 91.3809C114.133 92.6111 113.186 93.2501 111.378 93.2501Z" fill="#F99800"/>
<path d="M81.2269 102.767C72.6682 102.767 64.1095 102.767 55.554 102.767C55.1663 102.767 54.7786 102.767 54.0762 102.767C54.8834 101.979 55.4809 101.407 56.0657 100.822C57.5181 99.3629 57.5276 98.5682 56.0848 97.125C48.8037 89.8361 41.5131 82.5599 34.2448 75.255C33.5233 74.5303 32.7765 74.2029 31.7372 74.206C22.8226 74.241 13.908 74.2156 4.99337 74.241C4.13846 74.2442 3.77298 74.1298 3.7984 73.1253C3.8715 70.4042 3.81747 70.4551 1.06204 70.3883C0.10543 70.3661 0.000551896 70.6967 0.00373001 71.52C0.0291549 82.2197 0.0291549 92.9195 0.00373001 103.619C0.000551896 104.395 0.108605 104.706 0.998477 104.694C3.80793 104.652 3.86196 104.697 3.7984 101.906C3.77616 100.952 4.10032 100.838 4.92981 100.844C9.72241 100.882 14.5182 100.876 19.3108 100.847C19.9941 100.844 20.4899 101.054 21.0111 101.483C27.4023 106.741 33.8157 111.97 40.2101 117.221C40.8552 117.752 41.5131 118 42.3617 118C55.357 117.981 68.3523 117.987 81.3476 117.984C83.1305 117.984 83.728 117.367 83.7312 115.543C83.7344 112.135 83.7344 108.728 83.7312 105.32C83.7312 103.333 83.1782 102.767 81.2269 102.767ZM79.9524 107.777C79.8698 109.595 79.8825 111.423 79.9492 113.245C79.9779 114.058 79.7014 114.201 78.9577 114.198C73.0146 114.17 67.0684 114.182 61.1253 114.182C55.2998 114.182 49.4743 114.17 43.6488 114.198C42.8829 114.201 42.3235 113.969 41.7388 113.486C35.3793 108.251 28.9882 103.053 22.6287 97.8243C21.9423 97.2585 21.2367 97.0392 20.3596 97.0424C15.2078 97.071 10.0561 97.0328 4.90439 97.0805C4.01133 97.09 3.80476 96.8675 3.81111 95.9838C3.85561 90.3574 3.85561 84.7278 3.81111 79.0982C3.80476 78.2018 4.02723 78.0015 4.91074 78.0079C13.4694 78.046 22.0313 78.0365 30.5899 78.0142C31.2764 78.011 31.7468 78.2049 32.2362 78.6977C38.7195 85.2173 45.2156 91.7211 51.7466 98.1931C52.4045 98.8447 52.3537 99.1658 51.718 99.7475C50.4913 100.87 49.3217 102.058 48.184 103.273C47.7041 103.785 47.4371 103.718 46.9795 103.25C44.0874 100.316 41.1476 97.4238 38.2619 94.4834C37.7184 93.9303 37.3466 93.7555 36.8127 94.4548C36.2438 95.1955 34.9948 95.7136 35.0361 96.5147C35.0711 97.2045 36.1548 97.8466 36.7936 98.4919C39.816 101.524 42.8416 104.551 45.8735 107.574C47.1479 108.845 48.0759 108.883 49.2995 107.558C50.005 106.792 50.7487 106.544 51.7721 106.55C60.7661 106.588 69.7634 106.591 78.7575 106.544C79.7617 106.541 79.9969 106.808 79.9524 107.777Z" fill="#F99800"/>
<path d="M56.4598 47.9494C56.1324 47.2024 56.2246 46.6747 56.6219 46.0008C60.4229 39.5543 61.7386 32.6309 60.442 25.2466C57.5181 8.59302 41.815 -2.44368 25.2157 0.4649C10.6314 3.01745 0.0259809 15.6276 0.0228027 30.7268C-0.078897 32.4592 0.168996 34.4682 0.578973 36.4422C4.86943 57.1488 27.9457 67.3336 46.1277 56.548C46.7443 56.1824 47.2242 56.1443 47.863 56.4177C51.1587 57.8322 54.4735 59.2023 57.7787 60.5946C58.6686 60.9697 59.5394 61.1222 60.3148 60.3784C61.1348 59.5932 60.9791 58.6905 60.585 57.7559C59.212 54.4913 57.8772 51.2013 56.4598 47.9494ZM48.1141 52.3488C47.0367 51.8752 46.1341 51.9578 45.1298 52.6095C29.1884 62.9627 8.47024 54.3896 4.37682 35.7683C1.35443 22.017 10.5964 7.59171 24.3831 4.53691C39.2058 1.25006 53.5137 10.4017 56.5488 25.2275C57.9821 32.2367 56.6759 38.8327 52.7859 44.8501C52.0104 46.0517 51.8611 47.0689 52.4522 48.3626C53.4597 50.5751 54.34 52.8447 55.4047 55.41C52.7509 54.3006 50.4182 53.3597 48.1141 52.3488Z" fill="#F99800"/>
<path d="M44.4148 13.9652C44.5546 14.0923 44.7072 14.2227 44.847 14.3593C45.3269 14.833 45.7591 15.367 46.2867 15.7739C47.0717 16.3779 46.8905 16.7847 46.2613 17.411C37.3308 26.302 28.4257 35.2216 19.5142 44.1349C18.7292 44.9201 17.9093 45.6703 17.172 46.4967C16.7016 47.0244 16.4092 46.9704 15.9802 46.4713C15.3414 45.7275 14.1814 45.0854 14.1083 44.3161C14.0479 43.6994 15.2556 42.9429 15.9261 42.2721C25.1141 33.076 34.3052 23.8829 43.5027 14.6931C43.7633 14.4261 43.973 14.0637 44.4148 13.9652Z" fill="#F99800"/>
<path d="M20.9475 13.3325C16.7143 13.3325 13.3487 16.6925 13.3423 20.9139C13.3359 25.2021 16.7143 28.5652 21.0111 28.5525C25.2189 28.5398 28.5655 25.1512 28.5591 20.9075C28.5528 16.6861 25.184 13.3325 20.9475 13.3325ZM20.973 24.7443C18.9644 24.7602 17.1878 23.0182 17.1497 20.9965C17.1115 18.9589 18.9421 17.1184 20.9825 17.1439C23.0038 17.1693 24.7517 18.9335 24.7486 20.9489C24.7454 22.961 22.9911 24.7252 20.973 24.7443Z" fill="#F99800"/>
<path d="M40.0258 32.3606C35.7766 32.3511 32.3824 35.6856 32.3665 39.8912C32.3506 44.2016 35.7035 47.5838 39.9845 47.5838C44.2113 47.5806 47.5802 44.2175 47.5865 39.9929C47.5865 35.7492 44.24 32.3702 40.0258 32.3606ZM40.0194 43.7724C38.0172 43.8042 36.2279 42.0686 36.1771 40.0469C36.1262 38.0125 37.9441 36.1625 39.9876 36.172C42.0089 36.1815 43.7632 37.933 43.776 39.9547C43.7855 41.9605 42.0375 43.7407 40.0194 43.7724Z" fill="#F99800"/>
</svg>
