<svg width="118" height="118" viewBox="0 0 118 118" fill="none" xmlns="http://www.w3.org/2000/svg">
<mask id="mask0_10_159" style="mask-type:alpha" maskUnits="userSpaceOnUse" x="0" y="0" width="118" height="118">
<path d="M105.461 52.0547H101.593L67.5824 15.4228C68.1901 13.9757 68.5049 12.3888 68.5032 10.7814C68.5 4.82287 64.3011 -0.00364471 59.1258 2.06519e-06C53.9499 0.00364884 49.7573 4.83745 49.7605 10.7954C49.7586 12.3976 50.0735 13.9793 50.6813 15.4207L16.671 52.0541H12.8031C5.81577 52.0541 0 58.6745 0 66.7172V103.489C0 111.533 5.81577 118 12.8031 118H105.461C107.114 118.003 108.751 117.63 110.278 116.901C111.805 116.172 113.191 115.102 114.357 113.753C115.523 112.404 116.445 110.802 117.07 109.04C117.696 107.279 118.011 105.392 118 103.489V66.7172C118 58.6745 112.448 52.0541 105.461 52.0541V52.0547ZM59.1318 4.87453C61.9749 4.87453 64.2795 7.52756 64.2795 10.8005C64.2795 14.0732 61.9749 16.7266 59.1318 16.7266C56.2888 16.7266 53.9842 14.0732 53.9842 10.8005C53.9874 7.52847 56.2898 4.87757 59.1318 4.87453ZM53.3324 19.2276C56.722 22.3544 61.5449 22.3508 64.9312 19.2179L95.4134 52.0547H22.8502L53.3324 19.2276ZM113.776 103.413C113.776 108.783 109.994 113.138 105.329 113.138H12.6711C8.00603 113.138 4.2237 108.783 4.2237 103.413V66.6418C4.2237 61.271 8.00603 56.9171 12.6711 56.9171H105.329C109.994 56.9171 113.776 61.271 113.776 66.6418V103.413Z" fill="#323232"/>
<path d="M31.5984 79.3814C31.5984 78.4402 32.3645 77.558 34.2382 77.558C36.4023 77.558 36.9044 78.7134 37.8542 78.7134C39.0165 78.7134 39.492 77.0419 39.492 76.2214C39.492 73.851 35.6373 73.5471 34.2379 73.5471C30.9382 73.5471 27.4808 75.279 27.4808 79.8375C27.4808 86.9493 35.8487 86.3105 35.8487 89.9883C35.8487 91.4461 34.5019 91.9934 33.2881 91.9934C30.8331 91.9934 30.0412 89.7449 28.8004 89.7449C27.7973 89.7449 27.0054 91.2644 27.0054 92.2973C27.0054 94.3034 29.9092 96.248 33.3665 96.248C37.1943 96.248 39.9661 93.8776 39.9661 89.5015C39.9661 81.8435 31.5981 82.4206 31.5981 79.3817L31.5984 79.3814ZM50.803 73.7289C47.1596 73.7289 44.3487 75.6732 44.3487 80.9008V88.9541C44.3487 94.1812 47.1596 96.1258 50.803 96.1258C54.4465 96.1258 57.2838 94.1812 57.2838 88.9541V80.9008C57.2838 75.6738 54.446 73.7282 50.803 73.7282V73.7289ZM53.3241 88.9541C53.3241 91.051 52.4133 91.9931 50.935 91.9931C49.4562 91.9931 48.5724 91.051 48.5724 88.9541V80.9008C48.5724 78.8036 49.4573 77.8619 50.935 77.8619C52.4133 77.8619 53.3241 78.8036 53.3241 80.9008V88.9541ZM72.8059 91.8655H66.7871V75.1578C66.7871 74.1549 65.7043 73.7285 64.6753 73.7285C63.6463 73.7285 62.5634 74.1549 62.5634 75.1578V94.4851C62.5634 95.4576 63.5665 95.8146 64.4641 95.8146H72.8059C73.5978 95.8146 73.9938 94.8735 73.9938 93.8393C73.9938 92.8067 73.5978 91.8652 72.8059 91.8652V91.8655ZM84.7648 73.6316H80.0912C79.0097 73.6316 78.4023 74.3983 78.4023 75.1581V94.5161C78.4023 95.2758 79.0094 95.8146 80.0912 95.8146H84.7648C88.4067 95.8146 91.3374 93.9986 91.3374 88.7715V80.8999C91.3374 75.6744 88.4067 73.6313 84.7648 73.6313V73.6316ZM87.1137 88.7724C87.1137 90.8392 86.2425 91.8649 84.7648 91.8649H82.362V77.8856H84.7648C86.2423 77.8856 87.1137 78.834 87.1137 80.9008V88.7724Z" fill="#323232"/>
</mask>
<g mask="url(#mask0_10_159)">
<rect width="118" height="118" fill="#F99800"/>
</g>
</svg>
